 http://leetleech.org/images/79458763665750241286.jpg



Format                                   : AVI
Format/Info                              : Audio Video Interleave
File size                                : 1.33 GiB
Duration                                 : 2h 1mn
Overall bit rate                         : 1 567 Kbps
Writing library                          : VirtualDub build 30091/release

Video
ID                                       : 0
Format                                   : MPEG-4 Visual
Format profile                           : Advanced Simple@L5
Format settings, BVOP                    : 1
Format settings, QPel                    : No
Format settings, GMC                     : No warppoints
Format settings, Matrix                  : Default (H.263)
Muxing mode                              : Packed bitstream
Codec ID                                 : XVID
Codec ID/Hint                            : XviD
Duration                                 : 2h 1mn
Bit rate                                 : 1 299 Kbps
Width                                    : 720 pixels
Height                                   : 304 pixels
Display aspect ratio                     : 2.35:1
Frame rate                               : 29.970 fps
Color space                              : YUV
Chroma subsampling                       : 4:2:0
Bit depth                                : 8 bits
Scan type                                : Progressive
Compression mode                         : Lossy
Bits/(Pixel*Frame)                       : 0.198
Stream size                              : 1.11 GiB (83%)
Writing library                          : XviD 1.2.1 (UTC 2008-12-04)

Audio
ID                                       : 1
Format                                   : AC-3
Format/Info                              : Audio Coding 3
Mode extension                           : CM (complete main)
Format settings, Endianness              : Big
Codec ID                                 : 2000
Duration                                 : 2h 1mn
Bit rate mode                            : Constant
Bit rate                                 : 256 Kbps
Channel(s)                               : 2 channels
Channel positions                        : Front: L R
Sampling rate                            : 48.0 KHz
Bit depth                                : 16 bits
Compression mode                         : Lossy
Stream size                              : 223 MiB (16%)


 
http://www.shotpix.com/images/51612035081613751822.png 
http://www.shotpix.com/images/23761494242547343090.png 
http://www.shotpix.com/images/52069446081091779825.png